<svg xmlns="http://www.w3.org/2000/svg" width="800" height="800" fill="none" viewBox="0 0 24 24"><path stroke="currentColor" stroke-linecap="round" stroke-linejoin="round" stroke-width="2" d="M4 6h16m-4 0-.27-.812c-.263-.787-.394-1.18-.637-1.471a2 2 0 0 0-.803-.578C13.939 3 13.524 3 12.695 3h-1.388c-.829 0-1.244 0-1.596.139a2 2 0 0 0-.803.578c-.243.29-.374.684-.636 1.471L8 6m10 0v10.2c0 1.68 0 2.52-.327 3.162a3 3 0 0 1-1.311 1.311C15.72 21 14.88 21 13.2 21h-2.4c-1.68 0-2.52 0-3.162-.327a3 3 0 0 1-1.311-1.311C6 18.72 6 17.88 6 16.2V6m8 4v7m-4-7v7"/></svg>