<?xml version="1.0" encoding="iso-8859-1"?>
<!-- Uploaded to: SVG Repo, www.svgrepo.com, Generator: SVG Repo Mixer Tools -->
<!DOCTYPE svg PUBLIC "-//W3C//DTD SVG 1.1//EN" "http://www.w3.org/Graphics/SVG/1.1/DTD/svg11.dtd">
<svg fill="#000000" version="1.1" id="Capa_1" xmlns="http://www.w3.org/2000/svg" xmlns:xlink="http://www.w3.org/1999/xlink" 
	 width="800px" height="800px" viewBox="0 0 612 612" xml:space="preserve">
<g>
	<path d="M534.219,72.689v-0.177h-35.172V19.125C499.047,8.563,490.484,0,479.922,0h-41.438c-10.562,0-19.125,8.563-19.125,19.125
		v53.392h-32.871H224.724h-31.676V19.125C193.048,8.563,184.484,0,173.923,0h-41.439c-10.562,0-19.125,8.563-19.125,19.125v53.392
		H80.884C33.87,72.517,0,106.77,0,149.017V535.5C0,577.747,34.253,612,76.5,612h459c42.246,0,76.5-34.253,76.5-76.5V149.017
		C612.004,107.937,579.947,74.511,534.219,72.689z M152.211,558.211c0,5.273-4.289,9.562-9.562,9.562H47.817
		c-5.274,0-9.562-4.289-9.562-9.562v-76.299c0-5.274,4.289-9.562,9.562-9.562h94.826c5.274,0,9.562,4.288,9.562,9.562v76.299
		H152.211z M152.211,424.929c0,5.273-4.289,9.562-9.562,9.562H47.817c-5.274,0-9.562-4.289-9.562-9.562v-57.375
		c0-5.273,4.289-9.562,9.562-9.562h94.826c5.274,0,9.562,4.289,9.562,9.562v57.375H152.211z M152.211,309.586
		c0,5.273-4.289,9.562-9.562,9.562H47.817c-5.274,0-9.562-4.289-9.562-9.562v-77.695c0-5.274,4.289-9.562,9.562-9.562h94.826
		c5.274,0,9.562,4.289,9.562,9.562v77.695H152.211z M286.88,558.211c0,5.273-4.289,9.562-9.562,9.562h-76.5
		c-5.274,0-9.562-4.289-9.562-9.562v-76.299c0-5.274,4.289-9.562,9.562-9.562h76.5c5.273,0,9.562,4.288,9.562,9.562V558.211z
		 M286.88,424.929c0,5.273-4.289,9.562-9.562,9.562h-76.5c-5.274,0-9.562-4.289-9.562-9.562v-57.375
		c0-5.273,4.289-9.562,9.562-9.562h76.5c5.273,0,9.562,4.289,9.562,9.562V424.929z M286.88,309.586c0,5.273-4.289,9.562-9.562,9.562
		h-76.5c-5.274,0-9.562-4.289-9.562-9.562v-77.695c0-5.274,4.289-9.562,9.562-9.562h76.5c5.273,0,9.562,4.289,9.562,9.562V309.586z
		 M420.754,558.211c0,5.273-4.287,9.562-9.562,9.562H335.49c-5.273,0-9.562-4.289-9.562-9.562v-76.299
		c0-5.274,4.289-9.562,9.562-9.562h75.701c5.275,0,9.562,4.288,9.562,9.562V558.211z M420.754,424.929
		c0,5.273-4.287,9.562-9.562,9.562H335.49c-5.273,0-9.562-4.289-9.562-9.562v-57.375c0-5.273,4.289-9.562,9.562-9.562h75.701
		c5.275,0,9.562,4.289,9.562,9.562V424.929z M420.754,309.586c0,5.273-4.287,9.562-9.562,9.562H335.49
		c-5.273,0-9.562-4.289-9.562-9.562v-77.695c0-5.274,4.289-9.562,9.562-9.562h75.701c5.275,0,9.562,4.289,9.562,9.562V309.586z
		 M572.961,558.211c0,5.273-4.289,9.562-9.562,9.562h-93.637c-5.273,0-9.562-4.289-9.562-9.562v-76.299
		c0-5.274,4.289-9.562,9.562-9.562h93.633c5.273,0,9.562,4.288,9.562,9.562v76.299H572.961z M572.961,424.929
		c0,5.273-4.289,9.562-9.562,9.562h-93.637c-5.273,0-9.562-4.289-9.562-9.562v-57.375c0-5.273,4.289-9.562,9.562-9.562h93.633
		c5.273,0,9.562,4.289,9.562,9.562v57.375H572.961z M572.961,309.586c0,5.273-4.289,9.562-9.562,9.562h-93.637
		c-5.273,0-9.562-4.289-9.562-9.562v-77.695c0-5.274,4.289-9.562,9.562-9.562h93.633c5.273,0,9.562,4.289,9.562,9.562v77.695
		H572.961z"/>
</g>
</svg>