<svg xmlns="http://www.w3.org/2000/svg" width="800" height="800" fill="none" viewBox="-0.5 0 25 25"><path stroke="currentColor" stroke-linecap="round" stroke-linejoin="round" stroke-width="1.5" d="M18.22 21.25H5.78a3.6 3.6 0 0 1-3.31-5.33L8.69 5.11a3.87 3.87 0 0 1 6.62 0l6.22 10.81a3.6 3.6 0 0 1-3.31 5.33"/><path fill="currentColor" d="M10.88 17.15a1.12 1.12 0 0 1 1.13-1.12 1.11 1.11 0 1 1-1.13 1.12m.36-2.73L11.1 9.2a.898.898 0 0 1 1.262-.917.9.9 0 0 1 .49.545c.039.12.052.247.039.372l-.13 5.22a.76.76 0 0 1-1.52 0"/></svg>