<?xml version="1.0" encoding="utf-8"?><!-- Uploaded to: SVG Repo, www.svgrepo.com, Generator: SVG Repo Mixer Tools -->
<svg width="800px" height="800px" viewBox="0 0 24 24" fill="none" xmlns="http://www.w3.org/2000/svg">
<path d="M9.0003 21H15.0003M18.0003 8.6C18.0003 7.11479 17.3682 5.69041 16.2429 4.6402C15.1177 3.59 13.5916 3 12.0003 3C10.409 3 8.88288 3.59 7.75766 4.6402C6.63245 5.69041 6.0003 7.11479 6.0003 8.6C6.0003 11.2862 5.32411 13.1835 4.52776 14.4866C3.75646 15.7486 3.37082 16.3797 3.38515 16.5436C3.40126 16.7277 3.4376 16.7925 3.58633 16.9023C3.71872 17 4.34793 17 5.60636 17H18.3943C19.6527 17 20.2819 17 20.4143 16.9023C20.563 16.7925 20.5994 16.7277 20.6155 16.5436C20.6298 16.3797 20.2441 15.7486 19.4729 14.4866C18.6765 13.1835 18.0003 11.2862 18.0003 8.6Z" stroke="currentColor" stroke-width="2" stroke-linecap="round" stroke-linejoin="round"/>
</svg>